<?xml version="1.0" encoding="UTF-8" standalone="no"?>
<!-- Created with Inkscape (http://www.inkscape.org/) -->

<svg
   width="10.186459mm"
   height="9.5099707mm"
   viewBox="0 0 10.186459 9.5099707"
   version="1.1"
   id="svg291"
   inkscape:version="1.1.2 (b8e25be8, 2022-02-05)"
   sodipodi:docname="black-queen.svg"
   xmlns:inkscape="http://www.inkscape.org/namespaces/inkscape"
   xmlns:sodipodi="http://sodipodi.sourceforge.net/DTD/sodipodi-0.dtd"
   xmlns="http://www.w3.org/2000/svg"
   xmlns:svg="http://www.w3.org/2000/svg">
  <sodipodi:namedview
     id="namedview293"
     pagecolor="#ffffff"
     bordercolor="#666666"
     borderopacity="1.0"
     inkscape:pageshadow="2"
     inkscape:pageopacity="0.0"
     inkscape:pagecheckerboard="0"
     inkscape:document-units="mm"
     showgrid="false"
     inkscape:zoom="0.64052329"
     inkscape:cx="569.06596"
     inkscape:cy="298.9743"
     inkscape:window-width="1312"
     inkscape:window-height="969"
     inkscape:window-x="0"
     inkscape:window-y="38"
     inkscape:window-maximized="0"
     inkscape:current-layer="layer1" />
  <defs
     id="defs288" />
  <g
     inkscape:label="Layer 1"
     inkscape:groupmode="layer"
     id="layer1"
     transform="translate(45.574453,-74.555167)">
    <g
       style="fill-opacity:1;fill-rule:evenodd;stroke:#000000;stroke-width:1.5;stroke-linecap:round;stroke-linejoin:round;stroke-miterlimit:4;stroke-dasharray:none;stroke-opacity:1"
       transform="matrix(0.26458333,0,0,0.26458333,-46.434349,73.166105)"
       id="g120">
      <g
         style="fill:#000000;stroke:none"
         id="g104">
        <circle
           cx="6"
           cy="12"
           r="2.75"
           id="circle94" />
        <circle
           cx="14"
           cy="9"
           r="2.75"
           id="circle96" />
        <circle
           cx="22.5"
           cy="8"
           r="2.75"
           id="circle98" />
        <circle
           cx="31"
           cy="9"
           r="2.75"
           id="circle100" />
        <circle
           cx="39"
           cy="12"
           r="2.75"
           id="circle102" />
      </g>
      <path
         d="m 9,26 c 8.5,-1.5 21,-1.5 27,0 L 38.5,13.5 31,25 30.7,10.9 25.5,24.5 22.5,10 19.5,24.5 14.3,10.9 14,25 6.5,13.5 Z"
         style="stroke:#000000;stroke-linecap:butt"
         id="path106" />
      <path
         d="m 9,26 c 0,2 1.5,2 2.5,4 1,1.5 1,1 0.5,3.5 -1.5,1 -1.5,2.5 -1.5,2.5 -1.5,1.5 0.5,2.5 0.5,2.5 6.5,1 16.5,1 23,0 0,0 1.5,-1 0,-2.5 0,0 0.5,-1.5 -1,-2.5 -0.5,-2.5 -0.5,-2 0.5,-3.5 1,-2 2.5,-2 2.5,-4 -8.5,-1.5 -18.5,-1.5 -27,0 z"
         style="stroke-linecap:butt"
         id="path108" />
      <path
         d="m 11,38.5 a 35,35 1 0 0 23,0"
         style="fill:none;stroke:#000000;stroke-linecap:butt"
         id="path110" />
      <path
         d="m 11,29 a 35,35 1 0 1 23,0"
         style="fill:none;stroke:#ffffff"
         id="path112" />
      <path
         d="m 12.5,31.5 h 20"
         style="fill:none;stroke:#ffffff"
         id="path114" />
      <path
         d="m 11.5,34.5 a 35,35 1 0 0 22,0"
         style="fill:none;stroke:#ffffff"
         id="path116" />
      <path
         d="m 10.5,37.5 a 35,35 1 0 0 24,0"
         style="fill:none;stroke:#ffffff"
         id="path118" />
    </g>
  </g>
</svg>
